<svg width="988" height="715" viewBox="0 0 988 715" fill="none" xmlns="http://www.w3.org/2000/svg">
<g clip-path="url(#clip0_744_130)">
<path d="M146.409 506.154C145.599 504.927 144.529 503.893 143.276 503.124C142.023 502.356 140.616 501.871 139.156 501.705C137.695 501.539 136.216 501.695 134.822 502.162C133.428 502.629 132.154 503.396 131.088 504.41L99.334 488.019L101.308 506.484L131.16 519.217C132.98 520.894 135.353 521.845 137.828 521.889C140.302 521.934 142.707 521.069 144.587 519.459C146.467 517.848 147.69 515.605 148.026 513.152C148.362 510.7 147.786 508.21 146.409 506.154Z" fill="#DFB99D"/>
<path d="M118.188 513.586C117.614 513.849 116.99 513.989 116.358 513.996C115.726 514.003 115.099 513.876 114.519 513.625L84.3572 500.541C74.0441 496.069 65.7064 488.003 60.8952 477.843L45.0382 444.372C43.868 442.869 43.0056 441.149 42.5003 439.312C41.995 437.475 41.8568 435.557 42.0936 433.666C42.3303 431.776 42.9374 429.951 43.8801 428.295C44.8227 426.639 46.0825 425.186 47.5874 424.017C49.0923 422.849 50.8127 421.989 52.6503 421.486C54.4879 420.983 56.4067 420.847 58.2968 421.086C60.1869 421.325 62.0114 421.934 63.6659 422.879C65.3204 423.824 66.7724 425.085 67.939 426.592L95.8117 478.305L121.549 497.747C122.285 498.306 122.832 499.078 123.116 499.958C123.4 500.838 123.407 501.784 123.135 502.668L120.609 510.827C120.338 511.702 119.806 512.474 119.085 513.039C118.809 513.256 118.508 513.439 118.188 513.586Z" fill="#CCCCCC"/>
<path d="M44.3403 405.008C57.905 405.008 68.9014 394.012 68.9014 380.447C68.9014 366.883 57.905 355.886 44.3403 355.886C30.7756 355.886 19.7793 366.883 19.7793 380.447C19.7793 394.012 30.7756 405.008 44.3403 405.008Z" fill="#DFB99D"/>
<path d="M54.2889 702.644L66.5479 702.643L72.3809 655.355L54.2859 655.356L54.2889 702.644Z" fill="#DFB99D"/>
<path d="M90.1926 714.026L51.6619 714.028L51.6612 699.141L75.3051 699.14C79.2533 699.14 83.0399 700.708 85.8319 703.5C88.6238 706.291 90.1924 710.078 90.1926 714.026Z" fill="#263138"/>
<path d="M14.2889 702.644L26.5479 702.643L32.3809 655.355L14.2859 655.356L14.2889 702.644Z" fill="#DFB99D"/>
<path d="M50.1926 714.026L11.6619 714.028L11.6612 699.141L35.3051 699.14C39.2533 699.14 43.0399 700.708 45.8319 703.5C48.6238 706.291 50.1924 710.078 50.1926 714.026Z" fill="#263138"/>
<path d="M10.0078 689.108C9.58537 688.626 9.27091 688.059 9.08551 687.445C8.90011 686.831 8.84804 686.185 8.93279 685.549L30.3974 524.564L83.726 533.621L89.4174 530.206L74.6999 682.95C74.5775 683.981 74.1032 684.938 73.357 685.661C72.6108 686.383 71.6383 686.825 70.6037 686.914L54.456 688.259C53.814 688.313 53.168 688.228 52.5616 688.011C51.9553 687.793 51.4027 687.448 50.9413 686.998C50.4799 686.549 50.1205 686.005 49.8873 685.405C49.6541 684.804 49.5525 684.16 49.5896 683.517L53.7702 610.775C53.7776 610.652 53.7389 610.53 53.6615 610.433C53.5842 610.336 53.4738 610.272 53.3516 610.252C53.2294 610.232 53.1041 610.258 53.0001 610.325C52.896 610.392 52.8206 610.495 52.7883 610.615L32.1052 687.315C31.8466 688.27 31.2811 689.113 30.496 689.715C29.7108 690.316 28.7496 690.643 27.7605 690.644H13.3935C12.7523 690.644 12.1185 690.507 11.5345 690.242C10.9506 689.977 10.4301 689.591 10.0078 689.108Z" fill="#263138"/>
<path d="M46.9401 535.833C46.328 535.278 45.5411 534.956 44.7161 534.922C43.8911 534.887 43.0801 535.143 42.424 535.644L31.7621 543.937C31.1819 544.39 30.4995 544.693 29.7748 544.82C29.05 544.948 28.3051 544.895 27.6054 544.667C26.9057 544.44 26.2726 544.044 25.7616 543.514C25.2506 542.985 24.8774 542.338 24.6747 541.631C19.445 523.315 7.59634 477.213 10.5153 444.764C12.1698 426.372 28.0524 412.393 45.9203 413.566C58.1359 414.381 66.1723 421.427 69.8063 434.51C78.7289 466.633 88.5346 525.554 90.4096 537.041C90.5576 537.932 90.4327 538.847 90.0515 539.666C89.6702 540.485 89.0503 541.169 88.2731 541.63C83.2285 544.658 77.4648 546.28 71.5812 546.327C64.4621 546.327 55.9259 543.848 46.9401 535.833Z" fill="#CCCCCC"/>
<path d="M50.9632 547.259C51.0826 545.794 50.8792 544.32 50.3675 542.942C49.8558 541.564 49.0481 540.315 48.0014 539.283C46.9547 538.25 45.6944 537.46 44.3092 536.968C42.9241 536.475 41.4478 536.293 39.9844 536.432L25.1125 503.939L15.271 519.687L30.9024 548.128C31.3002 550.571 32.5802 552.783 34.5001 554.346C36.4199 555.908 38.846 556.711 41.3188 556.604C43.7915 556.497 46.1391 555.487 47.9166 553.764C49.6941 552.042 50.7781 549.727 50.9632 547.259Z" fill="#DFB99D"/>
<path d="M24.1709 535.692C23.5562 535.545 22.9793 535.27 22.4777 534.885C21.9762 534.5 21.5612 534.014 21.2598 533.459L5.60063 504.549C0.245413 494.666 -1.33752 483.174 1.14628 472.211L9.32475 436.088C9.33217 434.183 9.71494 432.298 10.4512 430.541C11.1875 428.784 12.2628 427.19 13.6157 425.849C14.9685 424.508 16.5725 423.446 18.3357 422.725C20.099 422.005 21.9871 421.638 23.892 421.648C25.7969 421.657 27.6812 422.042 29.4374 422.78C31.1935 423.518 32.787 424.595 34.1267 425.949C35.4665 427.303 36.5261 428.908 37.2452 430.672C37.9643 432.436 38.3286 434.324 38.3174 436.229L28.336 494.122L36.5896 525.302C36.8243 526.197 36.7786 527.142 36.4587 528.01C36.1388 528.877 35.5602 529.626 34.8011 530.154L27.7781 535.015C27.0247 535.536 26.1304 535.815 25.2143 535.815C24.8629 535.815 24.5127 535.774 24.1709 535.692Z" fill="#CCCCCC"/>
<path opacity="0.2" d="M36.325 460.644L27.325 498.644L40.325 530.644L31.325 499.644L36.325 460.644Z" fill="black"/>
<path d="M30.3246 400.644C28.1398 400.685 25.9686 400.292 23.9366 399.488C23.0425 399.144 22.1143 398.861 21.2219 398.516C13.3402 395.471 8.1482 387.077 7.96225 378.629C7.7763 370.182 12.1509 361.983 18.6469 356.58C25.1428 351.176 33.5567 348.402 41.9819 347.761C51.0571 347.07 61.2761 349.371 66.3472 356.929C67.6971 358.941 68.6411 361.381 67.8412 363.81C67.6017 364.543 67.1738 365.201 66.6004 365.716C64.3357 367.731 62.0779 366.216 59.7693 366.082C56.596 365.898 53.7459 368.467 52.7215 371.476C51.6971 374.485 52.1481 377.798 52.9752 380.867C53.6053 382.713 54.0025 384.632 54.1577 386.577C54.2244 387.552 54.041 388.528 53.6247 389.413C53.2085 390.297 52.5732 391.061 51.7791 391.631C49.7962 392.83 47.1922 392.136 45.2081 390.94C43.224 389.743 41.5097 388.079 39.3666 387.199C37.2234 386.318 34.3441 386.513 33.0967 388.466C32.7003 389.176 32.432 389.951 32.3041 390.754C31.1858 395.849 31.4428 395.549 30.3246 400.644Z" fill="#263138"/>
<path d="M757.334 230.48H150.334C148.022 230.482 145.805 231.401 144.17 233.036C142.535 234.671 141.616 236.888 141.614 239.2V650.52C141.616 652.832 142.535 655.049 144.17 656.684C145.805 658.319 148.022 659.238 150.334 659.24H757.334C758.595 659.24 759.84 658.966 760.985 658.438C762.13 657.91 763.146 657.139 763.964 656.18C764.033 656.105 764.097 656.025 764.154 655.94C764.674 655.304 765.096 654.592 765.404 653.83C765.843 652.782 766.067 651.656 766.063 650.52V394.47H763.574V650.52C763.575 651.736 763.216 652.926 762.544 653.94C761.946 654.832 761.135 655.561 760.184 656.06C759.303 656.515 758.325 656.752 757.334 656.75H150.334C148.682 656.748 147.099 656.091 145.931 654.923C144.763 653.755 144.106 652.172 144.104 650.52V239.2C144.106 237.548 144.763 235.965 145.931 234.797C147.099 233.629 148.682 232.972 150.334 232.97H757.334C758.987 232.97 760.573 233.626 761.743 234.794C762.913 235.962 763.571 237.547 763.574 239.2V294.47H766.064V239.2C766.061 236.886 765.14 234.668 763.503 233.033C761.867 231.398 759.648 230.48 757.334 230.48Z" fill="#3F3D56"/>
<path d="M764.812 265.433H142.855V267.926H764.812V265.433Z" fill="#3F3D56"/>
<path d="M164.044 256.658C168.174 256.658 171.522 253.31 171.522 249.18C171.522 245.05 168.174 241.701 164.044 241.701C159.914 241.701 156.565 245.05 156.565 249.18C156.565 253.31 159.914 256.658 164.044 256.658Z" fill="#CCCCCC"/>
<path d="M185.544 256.658C189.675 256.658 193.023 253.31 193.023 249.18C193.023 245.05 189.675 241.701 185.544 241.701C181.414 241.701 178.066 245.05 178.066 249.18C178.066 253.31 181.414 256.658 185.544 256.658Z" fill="#CCCCCC"/>
<path d="M207.045 256.658C211.175 256.658 214.523 253.31 214.523 249.18C214.523 245.05 211.175 241.701 207.045 241.701C202.915 241.701 199.566 245.05 199.566 249.18C199.566 253.31 202.915 256.658 207.045 256.658Z" fill="#CCCCCC"/>
<path d="M357.256 608.824C354.682 608.812 352.151 608.159 349.893 606.922C347.635 605.686 345.721 603.905 344.324 601.743C342.928 599.58 342.093 597.103 341.894 594.537C341.696 591.97 342.141 589.394 343.19 587.043L361.006 547.293C346.974 534.882 335.746 519.626 328.066 502.54C320.386 485.454 316.431 466.929 316.465 448.197C316.465 375.012 376.005 315.47 449.191 315.47C522.378 315.47 581.918 375.012 581.918 448.197C581.918 521.382 522.378 580.924 449.191 580.924C436.389 580.911 423.656 579.035 411.393 575.356L365.924 606.139C363.369 607.882 360.349 608.818 357.256 608.824ZM449.191 333.99C425.505 333.976 402.402 341.332 383.083 355.036C363.765 368.741 349.188 388.117 341.374 410.477C333.56 432.837 332.896 457.074 339.474 479.828C346.052 502.583 359.546 522.727 378.085 537.469L383.698 541.945L364.528 584.719L408.519 554.937L412.863 556.396C428.554 561.668 445.205 563.464 461.66 561.661C478.115 559.858 493.981 554.498 508.158 545.954C522.336 537.409 534.486 525.884 543.767 512.177C553.047 498.469 559.236 482.908 561.905 466.571C564.573 450.234 563.658 433.512 559.221 417.564C554.785 401.617 546.933 386.824 536.211 374.212C525.489 361.601 512.153 351.471 497.127 344.526C482.101 337.58 465.745 333.985 449.191 333.99Z" fill="#263138"/>
<path d="M449.191 460.544C459.42 460.544 467.711 452.252 467.711 442.023C467.711 431.795 459.42 423.503 449.191 423.503C438.963 423.503 430.671 431.795 430.671 442.023C430.671 452.252 438.963 460.544 449.191 460.544Z" fill="#263138"/>
<path d="M396.718 460.544C406.946 460.544 415.238 452.252 415.238 442.023C415.238 431.795 406.946 423.503 396.718 423.503C386.49 423.503 378.198 431.795 378.198 442.023C378.198 452.252 386.49 460.544 396.718 460.544Z" fill="#263138"/>
<path d="M501.665 460.544C511.893 460.544 520.185 452.252 520.185 442.023C520.185 431.795 511.893 423.503 501.665 423.503C491.437 423.503 483.145 431.795 483.145 442.023C483.145 452.252 491.437 460.544 501.665 460.544Z" fill="#263138"/>
<path d="M914.912 368.722H738.912C736.79 368.722 734.756 367.879 733.255 366.379C731.755 364.878 730.912 362.844 730.912 360.722C730.912 358.6 731.755 356.565 733.255 355.065C734.756 353.565 736.79 352.722 738.912 352.722H914.912C917.034 352.722 919.069 353.565 920.569 355.065C922.069 356.565 922.912 358.6 922.912 360.722C922.912 362.844 922.069 364.878 920.569 366.379C919.069 367.879 917.034 368.722 914.912 368.722Z" fill="#CCCCCC"/>
<path d="M799.912 334.722H738.912C736.79 334.722 734.756 333.879 733.255 332.379C731.755 330.878 730.912 328.844 730.912 326.722C730.912 324.6 731.755 322.565 733.255 321.065C734.756 319.565 736.79 318.722 738.912 318.722H799.912C802.034 318.722 804.069 319.565 805.569 321.065C807.069 322.565 807.912 324.6 807.912 326.722C807.912 328.844 807.069 330.878 805.569 332.379C804.069 333.879 802.034 334.722 799.912 334.722Z" fill="#CCCCCC"/>
<path d="M659.195 378.47C677.973 378.47 693.195 363.248 693.195 344.47C693.195 325.692 677.973 310.47 659.195 310.47C640.418 310.47 625.195 325.692 625.195 344.47C625.195 363.248 640.418 378.47 659.195 378.47Z" fill="#445964"/>
<path d="M932.554 292.47H615.554C611.047 292.476 606.727 294.269 603.54 297.456C600.353 300.643 598.56 304.963 598.554 309.47V379.47C598.56 383.977 600.353 388.297 603.54 391.484C606.727 394.67 611.047 396.464 615.554 396.47H932.554C937.06 396.464 941.381 394.67 944.567 391.484C947.754 388.297 949.547 383.977 949.554 379.47V309.47C949.547 304.963 947.754 300.643 944.567 297.456C941.381 294.269 937.06 292.476 932.554 292.47ZM947.554 379.47C947.549 383.447 945.967 387.259 943.155 390.071C940.343 392.883 936.53 394.465 932.554 394.47H615.554C611.577 394.465 607.764 392.883 604.952 390.071C602.14 387.259 600.559 383.447 600.554 379.47V309.47C600.559 305.493 602.14 301.681 604.952 298.869C607.764 296.057 611.577 294.475 615.554 294.47H932.554C936.53 294.475 940.343 296.057 943.155 298.869C945.967 301.681 947.549 305.493 947.554 309.47V379.47Z" fill="#3F3D56"/>
<path d="M947.554 320.47C960.256 320.47 970.554 310.173 970.554 297.47C970.554 284.767 960.256 274.47 947.554 274.47C934.851 274.47 924.554 284.767 924.554 297.47C924.554 310.173 934.851 320.47 947.554 320.47Z" fill="#445964"/>
<path d="M946.847 310.405C946.754 310.312 946.68 310.202 946.63 310.081C946.579 309.959 946.553 309.829 946.554 309.698V284.242C946.554 283.977 946.659 283.723 946.847 283.535C947.034 283.348 947.288 283.242 947.554 283.242C947.819 283.242 948.073 283.348 948.261 283.535C948.448 283.723 948.554 283.977 948.554 284.242V309.698C948.554 309.896 948.495 310.089 948.385 310.253C948.275 310.418 948.119 310.546 947.936 310.622C947.754 310.697 947.552 310.717 947.359 310.679C947.165 310.64 946.986 310.545 946.847 310.405Z" fill="white"/>
<path d="M934.119 297.677C933.979 297.537 933.883 297.359 933.845 297.165C933.806 296.971 933.826 296.77 933.902 296.587C933.978 296.405 934.106 296.249 934.27 296.139C934.435 296.029 934.628 295.97 934.826 295.97H960.282C960.547 295.97 960.801 296.075 960.989 296.263C961.176 296.45 961.281 296.705 961.281 296.97C961.281 297.235 961.176 297.489 960.989 297.677C960.801 297.865 960.547 297.97 960.282 297.97H934.826C934.694 297.97 934.564 297.944 934.443 297.894C934.322 297.844 934.211 297.77 934.119 297.677Z" fill="white"/>
<path d="M975.087 603.177H927.077C927.077 604.557 877.597 605.677 877.597 605.677C876.821 606.261 876.113 606.932 875.487 607.677C873.608 609.918 872.581 612.751 872.587 615.677V617.677C872.588 620.991 873.906 624.17 876.249 626.514C878.593 628.858 881.772 630.175 885.087 630.177H975.087C978.401 630.174 981.579 628.856 983.923 626.512C986.266 624.169 987.584 620.991 987.587 617.677V615.677C987.582 612.363 986.264 609.186 983.921 606.843C981.578 604.5 978.401 603.181 975.087 603.177Z" fill="#3F3D56"/>
<path d="M937.082 629.68H924.082V713.68H937.082V629.68Z" fill="#3F3D56"/>
<path d="M974.082 713.223C974.082 714.628 954.382 713.767 930.082 713.767C905.781 713.767 886.082 714.628 886.082 713.223C886.082 711.819 905.781 700.68 930.082 700.68C954.382 700.68 974.082 711.819 974.082 713.223Z" fill="#3F3D56"/>
<path d="M934.753 490.609C950.217 490.609 962.753 478.072 962.753 462.609C962.753 447.145 950.217 434.609 934.753 434.609C919.289 434.609 906.753 447.145 906.753 462.609C906.753 478.072 919.289 490.609 934.753 490.609Z" fill="#263138"/>
<path d="M865.073 702.175L852.813 702.174L846.98 654.886L865.075 654.887L865.073 702.175Z" fill="#FFB8B8"/>
<path d="M844.056 698.671H867.7V713.558H829.169C829.169 709.61 830.737 705.823 833.529 703.032C836.321 700.24 840.108 698.671 844.056 698.671Z" fill="#263138"/>
<path d="M845.935 695.332L834.238 691.661L842.83 644.796L860.094 650.214L845.935 695.332Z" fill="#FFB8B8"/>
<path d="M826.931 685.697L849.491 692.777L845.033 706.981L808.27 695.444C809.452 691.677 812.083 688.534 815.582 686.706C819.082 684.878 823.164 684.515 826.931 685.697Z" fill="#263138"/>
<path d="M942.254 594.979C941.971 592.596 941.462 590.246 940.734 587.959L938.444 585.079L932.484 577.599L932.224 577.609C931.783 577.629 929.953 577.729 927.124 577.949H927.094C925.344 578.089 923.203 578.269 920.774 578.499C920.134 578.569 919.464 578.629 918.774 578.699V589.139H931.274C931.881 589.14 932.468 589.362 932.924 589.763C933.38 590.164 933.675 590.717 933.754 591.319C933.763 591.429 933.774 591.529 933.774 591.639C933.773 592.302 933.51 592.938 933.041 593.407C932.572 593.876 931.937 594.139 931.274 594.139H858.674C857.748 594.753 856.86 595.421 856.013 596.139C853.456 598.119 851.613 600.878 850.763 603.999C846.524 622.639 838.794 657.399 836.513 667.609C836.348 668.379 836.386 669.178 836.622 669.928C836.859 670.678 837.287 671.354 837.863 671.889C838.289 672.286 838.789 672.595 839.334 672.799L848.354 676.179C848.724 676.316 849.111 676.407 849.504 676.449C849.553 676.449 849.593 676.459 849.644 676.459C849.737 676.468 849.83 676.471 849.924 676.469C850.836 676.466 851.725 676.187 852.476 675.669C853.228 675.152 853.805 674.42 854.134 673.569L861.254 654.889L872.224 626.089L876.564 614.699C881.594 615.879 923.794 625.219 937.924 610.169C939.318 608.686 940.417 606.952 941.164 605.059C942.353 601.841 942.727 598.378 942.254 594.979Z" fill="#263138"/>
<path d="M954.493 597.699C954.273 596.809 954.023 595.889 953.733 594.959L945.483 584.599L945.224 584.609C944.703 584.639 942.233 584.769 938.443 585.079C934.144 585.439 928.133 586.019 921.383 586.929C921.184 586.949 920.974 586.979 920.774 587.009C920.113 587.099 919.443 587.189 918.774 587.289V589.139H931.274C931.881 589.14 932.467 589.362 932.924 589.763C933.38 590.164 933.675 590.717 933.753 591.319C933.763 591.429 933.774 591.529 933.774 591.639C933.773 592.302 933.51 592.938 933.041 593.407C932.572 593.875 931.936 594.139 931.274 594.139H887.093C885.164 594.769 883.303 595.429 881.523 596.139C872.184 599.839 865.193 604.689 863.763 610.999C863.283 613.119 862.753 615.449 862.193 617.929C860.113 627.149 857.584 638.439 855.293 648.699V648.709C854.823 650.829 854.354 652.889 853.903 654.889C851.993 663.489 850.374 670.779 849.513 674.609C849.493 674.719 849.474 674.819 849.453 674.929V674.949C849.354 675.724 849.45 676.511 849.733 677.239L849.743 677.249V677.259C850.018 677.956 850.466 678.572 851.044 679.049C851.43 679.368 851.866 679.621 852.334 679.799L861.354 683.179C861.856 683.367 862.387 683.465 862.923 683.469C863.675 683.471 864.415 683.282 865.073 682.919C866.019 682.407 866.749 681.573 867.133 680.569L886.553 629.609L889.563 621.699C894.593 622.879 936.793 632.209 950.923 617.169C953.715 614.148 955.308 610.211 955.403 606.099C955.502 603.27 955.195 600.441 954.493 597.699Z" fill="#263138"/>
<path d="M953.383 509.479C953.224 509.289 953.053 509.099 952.874 508.919C950.21 506.119 946.921 503.99 943.276 502.705C939.631 501.421 935.734 501.018 931.903 501.529C928.562 501.968 925.252 502.619 921.993 503.479C917.785 504.561 913.931 506.722 910.813 509.749C908.385 512.104 906.472 514.938 905.196 518.071C903.921 521.204 903.31 524.568 903.403 527.949C903.443 529.319 903.453 530.719 903.434 532.139C903.434 532.799 903.423 533.469 903.414 534.139H913.273C913.701 534.138 914.128 534.188 914.543 534.289C915.747 534.577 916.818 535.261 917.585 536.231C918.353 537.202 918.771 538.402 918.773 539.639V586.159C919.443 586.349 920.113 586.539 920.773 586.739C920.983 586.809 921.184 586.869 921.383 586.929C921.613 586.999 921.843 587.069 922.064 587.139C924.093 587.769 926.077 588.436 928.013 589.139H931.273C931.881 589.14 932.467 589.361 932.924 589.763C933.38 590.164 933.675 590.717 933.753 591.319C934.434 591.589 935.093 591.859 935.743 592.129C938.053 593.089 940.243 594.049 942.253 594.979C944.963 596.219 947.374 597.399 949.394 598.429C950.029 598.753 950.731 598.924 951.443 598.929C952.379 598.926 953.29 598.625 954.043 598.069C954.2 597.954 954.35 597.83 954.493 597.699C955.028 597.197 955.433 596.573 955.672 595.879C955.91 595.185 955.976 594.444 955.863 593.719C954.831 585.864 954.53 577.93 954.963 570.019C955.243 563.369 955.843 556.549 956.624 549.959C957.043 546.389 957.513 542.889 958.003 539.519C958.474 536.299 958.974 533.209 959.463 530.289C960.106 526.586 959.893 522.786 958.839 519.178C957.785 515.571 955.918 512.253 953.383 509.479Z" fill="#445964"/>
<path d="M912.393 510.299C911.88 510.079 911.352 509.895 910.813 509.749C908.149 509.032 905.314 509.296 902.829 510.495C900.343 511.694 898.371 513.747 897.273 516.279L890.403 532.139L889.543 534.139H913.273C913.701 534.138 914.128 534.188 914.543 534.289L915.343 532.439L918.383 525.419C919.591 522.62 919.638 519.455 918.515 516.621C917.392 513.786 915.191 511.512 912.393 510.299Z" fill="#445964"/>
<path d="M933.729 493.721C947.294 493.721 958.29 482.724 958.29 469.16C958.29 455.595 947.294 444.599 933.729 444.599C920.165 444.599 909.168 455.595 909.168 469.16C909.168 482.724 920.165 493.721 933.729 493.721Z" fill="#FFB8B8"/>
<path d="M908.726 457.093C920.36 464.194 933.475 468.516 947.052 469.721L943.012 464.88C945.954 465.968 949.049 466.583 952.183 466.701C955.313 466.653 958.593 465.447 960.37 462.87C961.162 461.588 961.633 460.134 961.741 458.632C961.85 457.129 961.594 455.622 960.995 454.24C959.764 451.483 957.847 449.087 955.428 447.28C951.141 443.888 946.081 441.61 940.699 440.648C935.317 439.686 929.781 440.071 924.584 441.767C921.019 442.833 917.826 444.881 915.372 447.677C913.043 450.549 908.561 453.108 909.753 456.608L908.726 457.093Z" fill="#263138"/>
<path d="M937.859 437.272C930.112 429.416 920.738 423.354 910.396 419.513C903.757 417.053 896.531 415.534 889.591 416.93C882.65 418.327 876.087 423.128 874.15 429.938C872.567 435.506 874.202 441.502 876.659 446.744C879.116 451.985 882.397 456.846 884.384 462.283C886.411 467.831 887.021 473.798 886.158 479.641C885.294 485.485 882.985 491.02 879.44 495.745C875.895 500.469 871.226 504.234 865.857 506.696C860.488 509.159 854.588 510.241 848.695 509.846C855.514 510.76 861.8 513.965 868.466 515.671C875.131 517.376 882.998 517.261 887.952 512.485C893.193 507.433 893.298 499.218 893.044 491.943C892.668 481.128 892.291 470.313 891.914 459.498C891.722 453.982 891.558 448.29 893.547 443.142C895.536 437.994 900.263 433.487 905.782 433.534C909.964 433.569 913.666 436.103 917.021 438.602C920.375 441.1 923.925 443.766 928.091 444.138C932.257 444.51 937.014 441.426 936.702 437.255L937.859 437.272Z" fill="#263138"/>
<path d="M958.004 539.519L943.984 539.899L942.964 549.749L942.734 552.029L920.773 561.889L918.773 562.789V580.319L920.773 579.749L927.093 577.949H927.124L954.963 570.019L955.283 569.929C957.533 569.28 959.513 567.922 960.929 566.057C962.345 564.192 963.122 561.921 963.144 559.579L963.213 547.949L963.273 539.379L958.004 539.519Z" fill="#FFB8B8"/>
<path d="M962.564 520.039C962.377 516.995 960.988 514.149 958.703 512.128C956.418 510.107 953.423 509.077 950.379 509.264C947.334 509.451 944.488 510.84 942.468 513.125C940.447 515.41 939.417 518.405 939.604 521.449L941.133 546.409C941.175 547.066 941.36 547.706 941.676 548.283C941.993 548.86 942.432 549.361 942.963 549.749C943.809 550.379 944.851 550.688 945.903 550.619L956.624 549.959L959.874 549.759C960.466 549.73 961.045 549.581 961.578 549.322C962.111 549.062 962.586 548.697 962.974 548.249C963.06 548.154 963.14 548.054 963.213 547.949C963.849 547.098 964.161 546.049 964.093 544.989L962.564 520.039Z" fill="#445964"/>
<path d="M922.063 587.139H920.773V587.009C920.113 587.099 919.443 587.189 918.773 587.289V589.139H928.013C926.073 588.439 924.09 587.773 922.063 587.139ZM922.063 587.139H920.773V587.009C920.113 587.099 919.443 587.189 918.773 587.289V589.139H928.013C926.073 588.439 924.09 587.773 922.063 587.139ZM931.273 587.139H920.773V539.639C920.77 538.013 920.238 536.432 919.259 535.134C918.28 533.835 916.906 532.89 915.343 532.439C914.672 532.237 913.974 532.136 913.273 532.139H824.273C822.285 532.142 820.379 532.933 818.973 534.339C817.567 535.745 816.776 537.651 816.773 539.639V588.639C816.774 590.628 817.565 592.535 818.971 593.942C820.377 595.348 822.285 596.139 824.273 596.139H931.273C932.381 596.137 933.449 595.727 934.274 594.988C935.098 594.248 935.622 593.23 935.743 592.129C935.764 591.967 935.774 591.803 935.773 591.639C935.772 590.446 935.297 589.303 934.453 588.459C933.61 587.616 932.466 587.141 931.273 587.139ZM933.773 591.639C933.773 592.302 933.51 592.938 933.041 593.407C932.572 593.875 931.936 594.139 931.273 594.139H824.273C822.815 594.138 821.417 593.559 820.385 592.527C819.354 591.496 818.774 590.098 818.773 588.639V539.639C818.774 538.181 819.354 536.782 820.385 535.751C821.417 534.72 822.815 534.14 824.273 534.139H913.273C913.701 534.138 914.128 534.188 914.543 534.289C915.747 534.577 916.818 535.261 917.585 536.231C918.353 537.202 918.771 538.402 918.773 539.639V589.139H931.273C931.881 589.14 932.467 589.362 932.924 589.763C933.38 590.164 933.675 590.717 933.753 591.319C933.763 591.429 933.773 591.529 933.773 591.639ZM922.063 587.139H920.773V587.009C920.113 587.099 919.443 587.189 918.773 587.289V589.139H928.013C926.073 588.439 924.09 587.773 922.063 587.139Z" fill="#3F3D56"/>
<path d="M868.771 570.141C872.084 570.141 874.771 567.454 874.771 564.141C874.771 560.827 872.084 558.141 868.771 558.141C865.457 558.141 862.771 560.827 862.771 564.141C862.771 567.454 865.457 570.141 868.771 570.141Z" fill="#445964"/>
<path d="M332.854 71.368C332.832 71.8248 332.845 72.2828 332.895 72.7375L301.493 99.0915L292.129 95.7009L285.165 109.165L305.638 118.91L339.968 80.3863C341.701 80.7008 343.49 80.4801 345.095 79.7535C346.7 79.027 348.045 77.829 348.953 76.3189C349.86 74.8089 350.287 73.0584 350.175 71.3001C350.064 69.5418 349.42 67.8592 348.328 66.476C347.237 65.0928 345.751 64.0745 344.067 63.5566C342.383 63.0388 340.581 63.0458 338.901 63.5769C337.221 64.1079 335.743 65.1378 334.663 66.5295C333.583 67.9212 332.952 69.6089 332.854 71.368Z" fill="#FFB8B8"/>
<path d="M290.738 115.623L260.414 104.677C257.631 103.673 255.36 101.603 254.102 98.9239C252.844 96.2449 252.702 93.1758 253.707 90.3919C254.711 87.6081 256.781 85.3374 259.46 84.0794C262.139 82.8214 265.208 82.6792 267.992 83.6841L298.316 94.6294C298.775 94.7952 299.197 95.0498 299.558 95.3789C299.92 95.7079 300.212 96.1048 300.42 96.5469C300.627 96.9891 300.746 97.4678 300.768 97.9557C300.791 98.4437 300.717 98.9313 300.551 99.3907L295.5 113.387C295.164 114.314 294.474 115.07 293.581 115.489C292.689 115.908 291.666 115.956 290.738 115.623Z" fill="#CCCCCC"/>
<path d="M268.53 222.252L278.664 222.251L283.485 183.161L268.528 183.162L268.53 222.252Z" fill="#FFB8B8"/>
<path d="M298.209 231.661L266.358 231.662L266.358 219.356L285.902 219.355C289.166 219.355 292.296 220.652 294.604 222.959C296.912 225.267 298.209 228.397 298.209 231.661Z" fill="#263138"/>
<path d="M243.484 209.16L251.774 214.989L278.202 185.786L265.967 177.184L243.484 209.16Z" fill="#FFB8B8"/>
<path d="M261.35 231.929L235.295 213.609L242.373 203.543L258.361 214.784C261.031 216.661 262.846 219.522 263.406 222.737C263.967 225.953 263.227 229.259 261.35 231.929Z" fill="#263138"/>
<path d="M290.705 151.836C290.705 151.836 315.996 148.852 311.457 165.264C306.917 181.675 256.336 195.849 256.336 195.849L290.705 151.836Z" fill="#FFB8B8"/>
<path d="M273.298 68.0967C284.511 68.0967 293.601 59.0068 293.601 47.7938C293.601 36.5808 284.511 27.4908 273.298 27.4908C262.085 27.4908 252.995 36.5808 252.995 47.7938C252.995 59.0068 262.085 68.0967 273.298 68.0967Z" fill="#FFB8B8"/>
<path d="M208.55 192.488C196.998 179.036 192.955 158.39 211.379 141.219C215.929 137.083 221.081 133.661 226.658 131.072L241.507 89.5467C243.049 85.2104 245.877 81.4475 249.613 78.76C253.35 76.0725 257.816 74.5881 262.418 74.505C266.886 74.3121 271.304 75.5072 275.065 77.9262C278.827 80.3451 281.747 83.8692 283.425 88.0145C285.238 92.2316 285.446 96.9666 284.008 101.326C279.588 115.091 273.783 128.373 266.683 140.967L267.451 147.109L304.982 150.445L304.632 151.014C304.45 151.311 286.081 179.298 262.582 197.874C254.548 204.226 246.239 206.858 238.397 206.857C226.506 206.857 215.691 200.803 208.55 192.488Z" fill="#CCCCCC"/>
<path d="M205.008 54.1634C208.6 49.8832 210.141 44.2848 211.38 38.8363C213.341 30.2155 214.859 21.3013 219.216 13.6082C223.572 5.91521 231.578 -0.459219 240.406 0.0259912C249.183 0.508431 256.28 7.57012 260.046 15.6049C260.958 15.2507 261.935 15.0919 262.912 15.1391C263.89 15.1862 264.846 15.4381 265.72 15.8785C268.435 17.3651 269.45 21.5907 267.19 23.7061C269.567 22.5744 272.155 21.9556 274.787 21.89C277.418 21.8244 280.034 22.3134 282.464 23.3253C285.589 24.6557 288.287 26.8222 290.26 29.5865C292.233 32.3509 293.405 35.6059 293.648 38.9935C293.743 40.3685 293.554 41.7482 293.093 43.0473C292.633 44.3463 291.911 45.537 290.971 46.5454C287.076 50.5556 281.566 49.1724 276.668 48.1508C272.04 47.1859 266.405 46.9254 263.798 51.3341C262.771 53.1712 262.483 55.331 262.994 57.3728C263.993 61.7739 267.251 64.8395 270.412 67.7733L270.929 68.7338C259.768 70.9104 247.579 63.2877 244.651 52.2993C241.723 41.311 248.503 28.6343 259.268 24.9686C258.551 24.9909 257.842 24.8216 257.213 24.478C256.584 24.1344 256.058 23.6291 255.689 23.0142C255.321 22.3994 255.123 21.6973 255.117 20.9805C255.111 20.2638 255.296 19.5584 255.654 18.9371C252.674 17.2678 249.302 16.4265 245.887 16.5004C240.327 16.8652 235.514 20.8233 232.621 25.5853C229.727 30.3475 228.417 35.8748 227.089 41.2868C225.762 46.6988 224.325 52.2143 221.231 56.8488C219.088 60.0586 216.224 62.7232 212.869 64.6298C209.513 66.5364 205.758 67.6323 201.904 67.83C198.049 68.0277 194.202 67.3218 190.668 65.7685C187.135 64.2153 184.014 61.8577 181.554 58.884C185.442 60.7692 189.84 61.3284 194.076 60.4758C198.312 59.6233 202.152 57.406 205.008 54.1634Z" fill="#263138"/>
<path d="M354.129 109.494C370.427 109.494 383.64 96.2807 383.64 79.9818C383.64 63.6829 370.427 50.47 354.129 50.47C337.83 50.47 324.617 63.6829 324.617 79.9818C324.617 96.2807 337.83 109.494 354.129 109.494Z" fill="#445964"/>
<path d="M353.221 96.579C353.102 96.46 353.007 96.3186 352.943 96.1629C352.878 96.0072 352.845 95.8403 352.845 95.6717V63.0087C352.845 62.6685 352.981 62.3421 353.221 62.1015C353.462 61.8609 353.788 61.7257 354.128 61.7257C354.469 61.7257 354.795 61.8609 355.036 62.1015C355.276 62.3421 355.411 62.6685 355.411 63.0087V95.6717C355.411 95.9255 355.336 96.1735 355.195 96.3845C355.054 96.5955 354.854 96.7599 354.619 96.857C354.385 96.9542 354.127 96.9796 353.878 96.9301C353.629 96.8806 353.401 96.7584 353.221 96.579Z" fill="white"/>
<path d="M336.89 80.2475C336.71 80.0681 336.588 79.8395 336.539 79.5906C336.489 79.3417 336.515 79.0838 336.612 78.8493C336.709 78.6149 336.873 78.4145 337.084 78.2735C337.295 78.1325 337.543 78.0573 337.797 78.0573H370.46C370.8 78.0573 371.127 78.1924 371.367 78.433C371.608 78.6737 371.743 79 371.743 79.3403C371.743 79.6805 371.608 80.0069 371.367 80.2475C371.127 80.4881 370.8 80.6233 370.46 80.6233H337.797C337.629 80.6235 337.462 80.5905 337.306 80.526C337.15 80.4615 337.009 80.3669 336.89 80.2475Z" fill="white"/>
<path d="M333.871 99.7213C333.657 100.125 333.475 100.546 333.326 100.978L293.701 111.486L286.665 104.437L274.639 113.664L289.029 131.188L336.477 110.908C337.913 111.93 339.625 112.49 341.387 112.514C343.149 112.539 344.876 112.027 346.339 111.046C347.803 110.064 348.933 108.661 349.579 107.022C350.225 105.383 350.357 103.586 349.958 101.87C349.558 100.155 348.645 98.6011 347.341 97.4166C346.037 96.2321 344.403 95.4727 342.657 95.2394C340.91 95.0061 339.134 95.3099 337.565 96.1105C335.996 96.9111 334.707 98.1706 333.871 99.7213Z" fill="#FFB8B8"/>
<path d="M276.939 121.879L254.143 99.0828C253.104 98.0472 252.279 96.8168 251.716 95.4621C251.153 94.1074 250.862 92.655 250.861 91.1879C250.86 89.7208 251.148 88.2679 251.709 86.9122C252.269 85.5566 253.092 84.3248 254.129 83.2874C255.167 82.25 256.399 81.4274 257.754 80.8666C259.11 80.3057 260.563 80.0177 262.03 80.0189C263.497 80.0202 264.949 80.3107 266.304 80.8739C267.659 81.437 268.889 82.2618 269.925 83.3009L292.721 106.097C293.066 106.442 293.34 106.852 293.527 107.304C293.714 107.755 293.81 108.239 293.81 108.727C293.81 109.216 293.714 109.699 293.527 110.151C293.34 110.602 293.066 111.012 292.721 111.357L282.2 121.879C281.501 122.575 280.555 122.966 279.569 122.966C278.583 122.966 277.637 122.575 276.939 121.879Z" fill="#CCCCCC"/>
<rect x="365" y="239" width="177" height="19" rx="9.5" fill="#CCCCCC"/>
<path d="M385.016 253L383.234 246.455H385.071L386.085 250.852H386.145L387.202 246.455H389.004L390.078 250.827H390.134L391.131 246.455H392.963L391.186 253H389.264L388.139 248.884H388.058L386.933 253H385.016ZM395.223 253L393.441 246.455H395.278L396.292 250.852H396.352L397.409 246.455H399.211L400.285 250.827H400.341L401.338 246.455H403.17L401.393 253H399.471L398.346 248.884H398.265L397.14 253H395.223ZM405.43 253L403.648 246.455H405.485L406.499 250.852H406.559L407.616 246.455H409.418L410.492 250.827H410.548L411.545 246.455H413.377L411.6 253H409.678L408.553 248.884H408.472L407.347 253H405.43ZM414.516 253.111C414.235 253.111 413.993 253.011 413.792 252.812C413.593 252.611 413.493 252.369 413.493 252.088C413.493 251.81 413.593 251.571 413.792 251.372C413.993 251.173 414.235 251.074 414.516 251.074C414.789 251.074 415.027 251.173 415.232 251.372C415.436 251.571 415.539 251.81 415.539 252.088C415.539 252.276 415.49 252.447 415.394 252.604C415.3 252.757 415.176 252.881 415.023 252.974C414.87 253.065 414.701 253.111 414.516 253.111ZM420.511 246.455V247.818H416.569V246.455H420.511ZM417.464 244.886H419.279V250.989C419.279 251.156 419.305 251.287 419.356 251.381C419.407 251.472 419.478 251.536 419.569 251.572C419.663 251.609 419.771 251.628 419.893 251.628C419.978 251.628 420.063 251.621 420.148 251.607C420.234 251.589 420.299 251.577 420.344 251.568L420.63 252.919C420.539 252.947 420.411 252.98 420.246 253.017C420.082 253.057 419.881 253.081 419.646 253.089C419.208 253.107 418.825 253.048 418.495 252.915C418.168 252.781 417.914 252.574 417.732 252.293C417.55 252.011 417.461 251.656 417.464 251.227V244.886ZM423.56 253.124C423.142 253.124 422.77 253.051 422.443 252.906C422.116 252.759 421.858 252.541 421.668 252.254C421.48 251.964 421.386 251.604 421.386 251.172C421.386 250.808 421.453 250.503 421.587 250.256C421.72 250.009 421.902 249.81 422.132 249.659C422.362 249.509 422.624 249.395 422.916 249.318C423.212 249.241 423.521 249.188 423.845 249.156C424.226 249.116 424.533 249.08 424.766 249.045C424.999 249.009 425.168 248.955 425.273 248.884C425.378 248.812 425.43 248.707 425.43 248.568V248.543C425.43 248.273 425.345 248.064 425.175 247.916C425.007 247.768 424.768 247.695 424.459 247.695C424.132 247.695 423.872 247.767 423.679 247.912C423.486 248.054 423.358 248.233 423.295 248.449L421.616 248.312C421.702 247.915 421.869 247.571 422.119 247.281C422.369 246.989 422.692 246.764 423.087 246.608C423.484 246.449 423.945 246.369 424.467 246.369C424.831 246.369 425.179 246.412 425.511 246.497C425.847 246.582 426.143 246.714 426.402 246.893C426.663 247.072 426.869 247.303 427.02 247.584C427.17 247.862 427.246 248.196 427.246 248.585V253H425.524V252.092H425.473C425.368 252.297 425.227 252.477 425.051 252.634C424.875 252.787 424.663 252.908 424.416 252.996C424.169 253.081 423.884 253.124 423.56 253.124ZM424.08 251.871C424.347 251.871 424.582 251.818 424.787 251.713C424.991 251.605 425.152 251.46 425.268 251.278C425.385 251.097 425.443 250.891 425.443 250.661V249.966C425.386 250.003 425.308 250.037 425.209 250.068C425.112 250.097 425.003 250.124 424.881 250.149C424.759 250.172 424.636 250.193 424.514 250.213C424.392 250.23 424.281 250.246 424.182 250.26C423.969 250.291 423.783 250.341 423.624 250.409C423.464 250.477 423.341 250.57 423.253 250.686C423.165 250.8 423.121 250.942 423.121 251.112C423.121 251.359 423.21 251.548 423.389 251.679C423.571 251.807 423.801 251.871 424.08 251.871ZM430.299 251.116L430.303 248.939H430.567L432.664 246.455H434.748L431.931 249.744H431.501L430.299 251.116ZM428.654 253V244.273H430.469V253H428.654ZM432.745 253L430.819 250.149L432.029 248.866L434.871 253H432.745ZM437.454 249.216V253H435.638V244.273H437.403V247.609H437.479C437.627 247.223 437.866 246.92 438.195 246.702C438.525 246.48 438.938 246.369 439.435 246.369C439.89 246.369 440.286 246.469 440.624 246.668C440.965 246.864 441.229 247.146 441.417 247.516C441.607 247.882 441.701 248.321 441.698 248.832V253H439.883V249.156C439.886 248.753 439.783 248.439 439.576 248.214C439.371 247.99 439.085 247.878 438.715 247.878C438.468 247.878 438.249 247.93 438.059 248.036C437.871 248.141 437.724 248.294 437.616 248.496C437.511 248.695 437.457 248.935 437.454 249.216ZM443.127 253V246.455H444.942V253H443.127ZM444.039 245.611C443.769 245.611 443.537 245.521 443.344 245.342C443.154 245.161 443.059 244.943 443.059 244.69C443.059 244.44 443.154 244.226 443.344 244.047C443.537 243.865 443.769 243.774 444.039 243.774C444.309 243.774 444.539 243.865 444.729 244.047C444.922 244.226 445.019 244.44 445.019 244.69C445.019 244.943 444.922 245.161 444.729 245.342C444.539 245.521 444.309 245.611 444.039 245.611ZM446.396 253V246.455H448.156V247.597H448.224C448.344 247.19 448.544 246.884 448.825 246.676C449.107 246.466 449.43 246.361 449.797 246.361C449.888 246.361 449.986 246.366 450.091 246.378C450.196 246.389 450.288 246.405 450.368 246.425V248.036C450.283 248.01 450.165 247.987 450.014 247.967C449.864 247.947 449.726 247.938 449.601 247.938C449.334 247.938 449.095 247.996 448.885 248.112C448.678 248.226 448.513 248.385 448.391 248.589C448.271 248.794 448.212 249.03 448.212 249.297V253H446.396ZM451.306 246.455H453.122V253.324C453.122 253.83 453.022 254.239 452.824 254.551C452.625 254.864 452.339 255.092 451.967 255.237C451.598 255.382 451.156 255.455 450.642 255.455C450.579 255.455 450.52 255.453 450.463 255.45C450.403 255.45 450.341 255.449 450.275 255.446V254.027C450.324 254.03 450.366 254.031 450.403 254.031C450.437 254.034 450.474 254.036 450.514 254.036C450.806 254.036 451.011 253.973 451.127 253.848C451.247 253.726 451.306 253.541 451.306 253.294V246.455ZM452.21 245.611C451.943 245.611 451.713 245.521 451.52 245.342C451.326 245.161 451.23 244.943 451.23 244.69C451.23 244.44 451.326 244.226 451.52 244.047C451.713 243.865 451.943 243.774 452.21 243.774C452.483 243.774 452.714 243.865 452.904 244.047C453.098 244.226 453.194 244.44 453.194 244.69C453.194 244.943 453.098 245.161 452.904 245.342C452.714 245.521 452.483 245.611 452.21 245.611ZM456.442 253.124C456.025 253.124 455.653 253.051 455.326 252.906C454.999 252.759 454.741 252.541 454.55 252.254C454.363 251.964 454.269 251.604 454.269 251.172C454.269 250.808 454.336 250.503 454.469 250.256C454.603 250.009 454.785 249.81 455.015 249.659C455.245 249.509 455.506 249.395 455.799 249.318C456.094 249.241 456.404 249.188 456.728 249.156C457.109 249.116 457.415 249.08 457.648 249.045C457.881 249.009 458.05 248.955 458.156 248.884C458.261 248.812 458.313 248.707 458.313 248.568V248.543C458.313 248.273 458.228 248.064 458.058 247.916C457.89 247.768 457.651 247.695 457.342 247.695C457.015 247.695 456.755 247.767 456.562 247.912C456.369 248.054 456.241 248.233 456.178 248.449L454.499 248.312C454.585 247.915 454.752 247.571 455.002 247.281C455.252 246.989 455.575 246.764 455.969 246.608C456.367 246.449 456.827 246.369 457.35 246.369C457.714 246.369 458.062 246.412 458.394 246.497C458.729 246.582 459.026 246.714 459.285 246.893C459.546 247.072 459.752 247.303 459.903 247.584C460.053 247.862 460.129 248.196 460.129 248.585V253H458.407V252.092H458.356C458.251 252.297 458.11 252.477 457.934 252.634C457.758 252.787 457.546 252.908 457.299 252.996C457.052 253.081 456.766 253.124 456.442 253.124ZM456.962 251.871C457.229 251.871 457.465 251.818 457.67 251.713C457.874 251.605 458.035 251.46 458.151 251.278C458.268 251.097 458.326 250.891 458.326 250.661V249.966C458.269 250.003 458.191 250.037 458.092 250.068C457.995 250.097 457.886 250.124 457.763 250.149C457.641 250.172 457.519 250.193 457.397 250.213C457.275 250.23 457.164 250.246 457.065 250.26C456.852 250.291 456.665 250.341 456.506 250.409C456.347 250.477 456.224 250.57 456.136 250.686C456.048 250.8 456.004 250.942 456.004 251.112C456.004 251.359 456.093 251.548 456.272 251.679C456.454 251.807 456.684 251.871 456.962 251.871ZM463.352 249.216V253H461.537V246.455H463.267V247.609H463.344C463.489 247.229 463.732 246.928 464.072 246.706C464.413 246.482 464.827 246.369 465.312 246.369C465.767 246.369 466.163 246.469 466.501 246.668C466.839 246.866 467.102 247.151 467.29 247.52C467.477 247.886 467.571 248.324 467.571 248.832V253H465.756V249.156C465.759 248.756 465.656 248.443 465.449 248.219C465.241 247.991 464.956 247.878 464.592 247.878C464.348 247.878 464.132 247.93 463.945 248.036C463.76 248.141 463.615 248.294 463.51 248.496C463.408 248.695 463.355 248.935 463.352 249.216ZM471.959 253.128C471.297 253.128 470.725 252.987 470.242 252.706C469.762 252.422 469.391 252.027 469.13 251.521C468.868 251.013 468.738 250.423 468.738 249.753C468.738 249.077 468.868 248.486 469.13 247.98C469.391 247.472 469.762 247.077 470.242 246.795C470.725 246.511 471.297 246.369 471.959 246.369C472.621 246.369 473.192 246.511 473.672 246.795C474.155 247.077 474.527 247.472 474.789 247.98C475.05 248.486 475.181 249.077 475.181 249.753C475.181 250.423 475.05 251.013 474.789 251.521C474.527 252.027 474.155 252.422 473.672 252.706C473.192 252.987 472.621 253.128 471.959 253.128ZM471.968 251.722C472.269 251.722 472.52 251.636 472.722 251.466C472.924 251.293 473.076 251.057 473.178 250.759C473.283 250.46 473.336 250.121 473.336 249.74C473.336 249.359 473.283 249.02 473.178 248.722C473.076 248.423 472.924 248.187 472.722 248.014C472.52 247.841 472.269 247.754 471.968 247.754C471.664 247.754 471.408 247.841 471.201 248.014C470.996 248.187 470.841 248.423 470.736 248.722C470.634 249.02 470.583 249.359 470.583 249.74C470.583 250.121 470.634 250.46 470.736 250.759C470.841 251.057 470.996 251.293 471.201 251.466C471.408 251.636 471.664 251.722 471.968 251.722ZM482.252 246.455L479.964 253H477.919L475.63 246.455H477.548L478.907 251.138H478.975L480.331 246.455H482.252ZM483.181 253V246.455H484.997V253H483.181ZM484.093 245.611C483.824 245.611 483.592 245.521 483.399 245.342C483.208 245.161 483.113 244.943 483.113 244.69C483.113 244.44 483.208 244.226 483.399 244.047C483.592 243.865 483.824 243.774 484.093 243.774C484.363 243.774 484.593 243.865 484.784 244.047C484.977 244.226 485.074 244.44 485.074 244.69C485.074 244.943 484.977 245.161 484.784 245.342C484.593 245.521 484.363 245.611 484.093 245.611ZM489.408 253.128C488.738 253.128 488.161 252.986 487.678 252.702C487.198 252.415 486.829 252.017 486.57 251.509C486.315 251 486.187 250.415 486.187 249.753C486.187 249.082 486.316 248.494 486.575 247.989C486.836 247.48 487.207 247.084 487.687 246.8C488.167 246.513 488.738 246.369 489.4 246.369C489.971 246.369 490.471 246.473 490.9 246.68C491.329 246.888 491.668 247.179 491.918 247.554C492.168 247.929 492.306 248.369 492.332 248.875H490.619C490.57 248.548 490.442 248.286 490.235 248.087C490.031 247.885 489.762 247.784 489.43 247.784C489.148 247.784 488.903 247.861 488.692 248.014C488.485 248.165 488.323 248.385 488.207 248.675C488.09 248.964 488.032 249.315 488.032 249.727C488.032 250.145 488.089 250.5 488.202 250.793C488.319 251.085 488.482 251.308 488.692 251.462C488.903 251.615 489.148 251.692 489.43 251.692C489.637 251.692 489.823 251.649 489.988 251.564C490.156 251.479 490.293 251.355 490.401 251.193C490.512 251.028 490.585 250.831 490.619 250.601H492.332C492.303 251.101 492.167 251.541 491.923 251.922C491.681 252.3 491.347 252.595 490.921 252.808C490.495 253.021 489.991 253.128 489.408 253.128ZM495.309 249.216V253H493.494V244.273H495.258V247.609H495.335C495.483 247.223 495.721 246.92 496.051 246.702C496.38 246.48 496.794 246.369 497.291 246.369C497.745 246.369 498.142 246.469 498.48 246.668C498.821 246.864 499.085 247.146 499.272 247.516C499.463 247.882 499.556 248.321 499.554 248.832V253H497.738V249.156C497.741 248.753 497.639 248.439 497.431 248.214C497.227 247.99 496.94 247.878 496.571 247.878C496.324 247.878 496.105 247.93 495.914 248.036C495.727 248.141 495.579 248.294 495.471 248.496C495.366 248.695 495.312 248.935 495.309 249.216ZM502.043 253.111C501.762 253.111 501.521 253.011 501.319 252.812C501.12 252.611 501.021 252.369 501.021 252.088C501.021 251.81 501.12 251.571 501.319 251.372C501.521 251.173 501.762 251.074 502.043 251.074C502.316 251.074 502.555 251.173 502.759 251.372C502.964 251.571 503.066 251.81 503.066 252.088C503.066 252.276 503.018 252.447 502.921 252.604C502.827 252.757 502.704 252.881 502.55 252.974C502.397 253.065 502.228 253.111 502.043 253.111ZM506.074 246.455L507.275 248.743L508.507 246.455H510.369L508.473 249.727L510.42 253H508.566L507.275 250.737L506.005 253H504.13L506.074 249.727L504.199 246.455H506.074ZM512.568 255.455C512.338 255.455 512.122 255.436 511.92 255.399C511.721 255.365 511.556 255.321 511.426 255.267L511.835 253.912C512.048 253.977 512.24 254.013 512.41 254.018C512.583 254.024 512.733 253.984 512.858 253.899C512.985 253.814 513.089 253.669 513.169 253.464L513.275 253.188L510.927 246.455H512.836L514.191 251.261H514.26L515.627 246.455H517.549L515.005 253.707C514.883 254.06 514.717 254.366 514.507 254.628C514.299 254.892 514.037 255.095 513.718 255.237C513.4 255.382 513.017 255.455 512.568 255.455ZM518.444 253V251.918L521.649 247.95V247.903H518.555V246.455H523.835V247.635L520.826 251.504V251.551H523.946V253H518.444Z" fill="#263138"/>
</g>
<defs>
<clipPath id="clip0_744_130">
<rect width="987.587" height="714.028" fill="white"/>
</clipPath>
</defs>
</svg>
